<svg width="900" height="600" viewBox="0 0 900 600" fill="none" xmlns="http://www.w3.org/2000/svg">
  <defs>
    <linearGradient id="gradAbout" x1="0" y1="0" x2="1" y2="1">
      <stop offset="0%" stop-color="#3EB3FF" />
      <stop offset="100%" stop-color="#5E6BFF" />
    </linearGradient>
  </defs>
  <rect width="900" height="600" rx="50" fill="#08122B" />
  <rect x="80" y="80" width="740" height="440" rx="36" fill="#0F1E43" />
  <circle cx="220" cy="220" r="66" fill="#3EB3FF" opacity="0.22" />
  <rect x="330" y="160" width="420" height="30" rx="15" fill="#3EB3FF" />
  <rect x="330" y="210" width="330" height="22" rx="11" fill="#233C78" />
  <rect x="330" y="250" width="370" height="22" rx="11" fill="#1C305C" />
  <rect x="330" y="290" width="310" height="22" rx="11" fill="#233C78" />
  <path d="M170 320L220 280L260 312L320 250" stroke="#4BE0FF" stroke-width="15" stroke-linecap="round" />
  <rect x="100" y="380" width="180" height="110" rx="20" fill="#14264E" />
  <rect x="180" y="420" width="120" height="18" rx="9" fill="#4BE0FF" />
  <rect x="190" y="455" width="90" height="14" rx="7" fill="#233C78" />
  <circle cx="720" cy="460" r="78" fill="#4BE0FF" opacity="0.18" />
</svg>
