<svg width="1200" height="675" viewBox="0 0 1200 675" fill="none" xmlns="http://www.w3.org/2000/svg">
  <defs>
    <linearGradient id="gradient1" x1="0" y1="0" x2="1" y2="1">
      <stop offset="0%" stop-color="#4BC0FF" />
      <stop offset="100%" stop-color="#6F6AFF" />
    </linearGradient>
    <linearGradient id="gradient2" x1="0" y1="0" x2="1" y2="1">
      <stop offset="0%" stop-color="#1C2552" />
      <stop offset="100%" stop-color="#081424" />
    </linearGradient>
  </defs>
  <rect width="1200" height="675" rx="40" fill="url(#gradient2)" />
  <circle cx="300" cy="200" r="140" fill="url(#gradient1)" opacity="0.8" />
  <rect x="520" y="120" width="520" height="320" rx="30" fill="#0C1B3A" opacity="0.95" />
  <circle cx="840" cy="160" r="90" fill="#173A75" opacity="0.95" />
  <path d="M128 520C190 490 250 454 312 420C368 388 416 362 480 348C562 328 624 340 696 354C760 366 842 400 930 430" stroke="#4BC0FF" stroke-width="18" stroke-linecap="round" />
  <rect x="580" y="170" width="260" height="34" rx="16" fill="#4BC0FF" opacity="0.95" />
  <rect x="580" y="230" width="380" height="28" rx="14" fill="#3A57B4" />
  <rect x="580" y="280" width="300" height="28" rx="14" fill="#223670" />
  <rect x="580" y="340" width="420" height="28" rx="14" fill="#415AC1" />
  <circle cx="780" cy="500" r="85" fill="#4BC0FF" opacity="0.1" />
  <circle cx="764" cy="490" r="55" fill="#4BC0FF" opacity="0.35" />
  <circle cx="760" cy="500" r="30" fill="#FFFFFF" opacity="0.9" />
</svg>
