<svg width="1200" height="675" viewBox="0 0 1200 675" fill="none" xmlns="http://www.w3.org/2000/svg">
  <defs>
    <linearGradient id="gradientA" x1="0" y1="0" x2="1" y2="1">
      <stop offset="0%" stop-color="#0E2E6F" />
      <stop offset="100%" stop-color="#0F1532" />
    </linearGradient>
    <linearGradient id="gradientB" x1="0" y1="0" x2="1" y2="1">
      <stop offset="0%" stop-color="#34D8FF" />
      <stop offset="100%" stop-color="#4072FF" />
    </linearGradient>
  </defs>
  <rect width="1200" height="675" rx="40" fill="url(#gradientA)" />
  <path d="M140 160C210 118 320 94 410 118C525 150 650 214 760 230C860 245 930 214 1000 190" stroke="#34D8FF" stroke-width="20" stroke-linecap="round" opacity="0.85" />
  <circle cx="345" cy="425" r="150" fill="#1F3B7A" />
  <rect x="465" y="170" width="520" height="360" rx="32" fill="#0D1737" opacity="0.95" />
  <rect x="520" y="220" width="300" height="32" rx="16" fill="#34D8FF" />
  <rect x="520" y="280" width="440" height="24" rx="12" fill="#1C2E5A" />
  <rect x="520" y="330" width="340" height="24" rx="12" fill="#17254A" />
  <rect x="520" y="380" width="280" height="24" rx="12" fill="#304E91" />
  <rect x="560" y="470" width="160" height="16" rx="8" fill="#1F3B7A" />
  <rect x="560" y="500" width="240" height="16" rx="8" fill="#1F3B7A" />
  <circle cx="910" cy="460" r="78" fill="#34D8FF" opacity="0.16" />
  <circle cx="910" cy="460" r="34" fill="#FFFFFF" opacity="0.88" />
</svg>
